<svg width="72" height="72" viewBox="0 0 72 72" fill="none" xmlns="http://www.w3.org/2000/svg">
<path d="M36 40.2L44.7 48.9C45.25 49.45 45.95 49.725 46.8 49.725C47.65 49.725 48.35 49.45 48.9 48.9C49.45 48.35 49.725 47.65 49.725 46.8C49.725 45.95 49.45 45.25 48.9 44.7L40.2 36L48.9 27.3C49.45 26.75 49.725 26.05 49.725 25.2C49.725 24.35 49.45 23.65 48.9 23.1C48.35 22.55 47.65 22.275 46.8 22.275C45.95 22.275 45.25 22.55 44.7 23.1L36 31.8L27.3 23.1C26.75 22.55 26.05 22.275 25.2 22.275C24.35 22.275 23.65 22.55 23.1 23.1C22.55 23.65 22.275 24.35 22.275 25.2C22.275 26.05 22.55 26.75 23.1 27.3L31.8 36L23.1 44.7C22.55 45.25 22.275 45.95 22.275 46.8C22.275 47.65 22.55 48.35 23.1 48.9C23.65 49.45 24.35 49.725 25.2 49.725C26.05 49.725 26.75 49.45 27.3 48.9L36 40.2ZM36 66C31.85 66 27.95 65.212 24.3 63.636C20.65 62.06 17.475 59.923 14.775 57.225C12.075 54.527 9.938 51.352 8.364 47.7C6.79 44.048 6.002 40.148 6 36C5.998 31.852 6.786 27.952 8.364 24.3C9.942 20.648 12.079 17.473 14.775 14.775C17.471 12.077 20.646 9.94 24.3 8.364C27.954 6.788 31.854 6 36 6C40.146 6 44.046 6.788 47.7 8.364C51.354 9.94 54.529 12.077 57.225 14.775C59.921 17.473 62.059 20.648 63.639 24.3C65.219 27.952 66.006 31.852 66 36C65.994 40.148 65.206 44.048 63.636 47.7C62.066 51.352 59.929 54.527 57.225 57.225C54.521 59.923 51.346 62.061 47.7 63.639C44.054 65.217 40.154 66.004 36 66ZM36 60C42.7 60 48.375 57.675 53.025 53.025C57.675 48.375 60 42.7 60 36C60 29.3 57.675 23.625 53.025 18.975C48.375 14.325 42.7 12 36 12C29.3 12 23.625 14.325 18.975 18.975C14.325 23.625 12 29.3 12 36C12 42.7 14.325 48.375 18.975 53.025C23.625 57.675 29.3 60 36 60Z" fill="#E90000"/>
</svg>
