<svg width="24" height="24" viewBox="0 0 24 24" fill="none" xmlns="http://www.w3.org/2000/svg">
<g id="material-symbols-light:list-alt-outline">
<path id="Vector" d="M8.117 16.539C8.335 16.539 8.51767 16.465 8.665 16.317C8.81167 16.1697 8.885 15.9867 8.885 15.768C8.885 15.5493 8.811 15.3667 8.663 15.22C8.515 15.0733 8.332 15 8.114 15C7.896 15 7.71333 15.074 7.566 15.222C7.41867 15.37 7.34533 15.553 7.346 15.771C7.34667 15.989 7.42067 16.1713 7.568 16.318C7.71533 16.4647 7.89833 16.539 8.117 16.539ZM8.117 12.769C8.335 12.769 8.51767 12.6953 8.665 12.548C8.81167 12.4 8.885 12.2167 8.885 11.998C8.885 11.7793 8.811 11.597 8.663 11.451C8.515 11.305 8.332 11.2317 8.114 11.231C7.896 11.2303 7.71333 11.304 7.566 11.452C7.41867 11.6 7.34533 11.7833 7.346 12.002C7.34667 12.2207 7.42067 12.403 7.568 12.549C7.71533 12.695 7.89833 12.7683 8.117 12.769ZM8.117 9C8.335 9 8.51767 8.92633 8.665 8.779C8.81167 8.631 8.885 8.44767 8.885 8.229C8.885 8.01033 8.811 7.828 8.663 7.682C8.515 7.536 8.332 7.46267 8.114 7.462C7.896 7.46133 7.71333 7.535 7.566 7.683C7.41933 7.831 7.346 8.014 7.346 8.232C7.346 8.45 7.42 8.63267 7.568 8.78C7.716 8.92733 7.899 9.00067 8.117 9ZM11.192 16.27H16.577V15.27H11.192V16.27ZM11.192 12.5H16.577V11.5H11.192V12.5ZM11.192 8.73H16.577V7.73H11.192V8.73ZM5.616 20C5.15533 20 4.771 19.846 4.463 19.538C4.155 19.23 4.00067 18.8453 4 18.384V5.616C4 5.15533 4.15433 4.771 4.463 4.463C4.77167 4.155 5.156 4.00067 5.616 4H18.385C18.845 4 19.2293 4.15433 19.538 4.463C19.8467 4.77167 20.0007 5.156 20 5.616V18.385C20 18.845 19.846 19.2293 19.538 19.538C19.23 19.8467 18.8453 20.0007 18.384 20H5.616ZM5.616 19H18.385C18.5383 19 18.6793 18.936 18.808 18.808C18.9367 18.68 19.0007 18.5387 19 18.384V5.616C19 5.462 18.936 5.32067 18.808 5.192C18.68 5.06333 18.5387 4.99933 18.384 5H5.616C5.462 5 5.32067 5.064 5.192 5.192C5.06333 5.32 4.99933 5.46133 5 5.616V18.385C5 18.5383 5.064 18.6793 5.192 18.808C5.32 18.9367 5.461 19.0007 5.615 19" fill="#0059B3"/>
</g>
</svg>
