<svg xmlns="http://www.w3.org/2000/svg" width="25" height="25" viewBox="0 0 16 16" fill="#ffffff">
<g id="mi:delete">
<path id="Vector" d="M4.66634 2.66536C4.66634 2.31174 4.80682 1.9726 5.05687 1.72256C5.30691 1.47251 5.64605 1.33203 5.99967 1.33203H9.99967C10.3533 1.33203 10.6924 1.47251 10.9425 1.72256C11.1925 1.9726 11.333 2.31174 11.333 2.66536V3.9987H13.9997C14.1765 3.9987 14.3461 4.06894 14.4711 4.19396C14.5961 4.31898 14.6663 4.48855 14.6663 4.66536C14.6663 4.84218 14.5961 5.01174 14.4711 5.13677C14.3461 5.26179 14.1765 5.33203 13.9997 5.33203H13.287L12.709 13.4267C12.6851 13.7631 12.5345 14.0779 12.2878 14.3077C12.041 14.5376 11.7162 14.6654 11.379 14.6654H4.61967C4.28243 14.6654 3.95772 14.5376 3.71093 14.3077C3.46414 14.0779 3.31362 13.7631 3.28967 13.4267L2.71301 5.33203H1.99967C1.82286 5.33203 1.65329 5.26179 1.52827 5.13677C1.40325 5.01174 1.33301 4.84218 1.33301 4.66536C1.33301 4.48855 1.40325 4.31898 1.52827 4.19396C1.65329 4.06894 1.82286 3.9987 1.99967 3.9987H4.66634V2.66536ZM5.99967 3.9987H9.99967V2.66536H5.99967V3.9987ZM4.04901 5.33203L4.62034 13.332H11.3797L11.951 5.33203H4.04901ZM6.66634 6.66536C6.84315 6.66536 7.01272 6.7356 7.13775 6.86063C7.26277 6.98565 7.33301 7.15522 7.33301 7.33203V11.332C7.33301 11.5088 7.26277 11.6784 7.13775 11.8034C7.01272 11.9285 6.84315 11.9987 6.66634 11.9987C6.48953 11.9987 6.31996 11.9285 6.19494 11.8034C6.06991 11.6784 5.99967 11.5088 5.99967 11.332V7.33203C5.99967 7.15522 6.06991 6.98565 6.19494 6.86063C6.31996 6.7356 6.48953 6.66536 6.66634 6.66536ZM9.33301 6.66536C9.50982 6.66536 9.67939 6.7356 9.80441 6.86063C9.92944 6.98565 9.99967 7.15522 9.99967 7.33203V11.332C9.99967 11.5088 9.92944 11.6784 9.80441 11.8034C9.67939 11.9285 9.50982 11.9987 9.33301 11.9987C9.1562 11.9987 8.98663 11.9285 8.8616 11.8034C8.73658 11.6784 8.66634 11.5088 8.66634 11.332V7.33203C8.66634 7.15522 8.73658 6.98565 8.8616 6.86063C8.98663 6.7356 9.1562 6.66536 9.33301 6.66536Z" fill="#ffffff"/>
</g>
</svg>