<svg width="17" height="16" viewBox="0 0 17 16" fill="none" xmlns="http://www.w3.org/2000/svg">
<g id="mingcute:down-fill">
<g id="Group">
<path id="Vector" fill-rule="evenodd" clip-rule="evenodd" d="M11.2068 8.7066C11.394 8.5191 11.4992 8.26493 11.4992 7.99993C11.4992 7.73493 11.394 7.48077 11.2068 7.29327L7.43609 3.52127C7.24849 3.33376 6.99409 3.22845 6.72885 3.22852C6.46361 3.22858 6.20926 3.334 6.02176 3.5216C5.83425 3.7092 5.72894 3.9636 5.729 4.22884C5.72907 4.49408 5.83449 4.74843 6.02209 4.93593L9.08609 7.99993L6.02209 11.0639C5.83984 11.2524 5.73892 11.505 5.74108 11.7672C5.74323 12.0294 5.84828 12.2803 6.0336 12.4658C6.21893 12.6513 6.46969 12.7565 6.73189 12.7589C6.99408 12.7613 7.24673 12.6607 7.43542 12.4786L11.2074 8.70727L11.2068 8.7066Z" fill="#0A3B70"/>
</g>
</g>
</svg>
