<svg width="24" height="24" viewBox="0 0 24 24" fill="none" xmlns="http://www.w3.org/2000/svg">
<g id="carbon:notification">
<path id="Vector" d="M19.9558 14.3541L18.2756 12.6739V10.4482C18.2737 8.91002 17.7015 7.42722 16.6697 6.28649C15.6379 5.14576 14.2198 4.42814 12.6895 4.27239V3H11.4482V4.27239C9.91792 4.42814 8.49978 5.14576 7.46797 6.28649C6.43616 7.42722 5.86397 8.91002 5.86204 10.4482V12.6739L4.18186 14.3541C4.06545 14.4705 4.00004 14.6283 4 14.7929V16.655C4 16.8196 4.06539 16.9775 4.18179 17.0939C4.29819 17.2103 4.45607 17.2756 4.62068 17.2756H8.96544V17.7579C8.95167 18.5454 9.22911 19.3103 9.74456 19.9058C10.26 20.5013 10.9772 20.8855 11.7585 20.9848C12.19 21.0276 12.6257 20.9796 13.0375 20.8439C13.4493 20.7082 13.8282 20.4879 14.1497 20.197C14.4712 19.9061 14.7283 19.5511 14.9044 19.1549C15.0805 18.7586 15.1718 18.3299 15.1722 17.8963V17.2756H19.517C19.6816 17.2756 19.8395 17.2103 19.9559 17.0939C20.0723 16.9775 20.1377 16.8196 20.1377 16.655V14.7929C20.1377 14.6283 20.0722 14.4705 19.9558 14.3541ZM13.9309 17.8963C13.9309 18.3902 13.7347 18.8638 13.3855 19.213C13.0363 19.5622 12.5627 19.7584 12.0688 19.7584C11.575 19.7584 11.1014 19.5622 10.7522 19.213C10.403 18.8638 10.2068 18.3902 10.2068 17.8963V17.2756H13.9309V17.8963ZM18.8963 16.0343H5.24136V15.0499L6.92154 13.3697C7.03795 13.2533 7.10337 13.0955 7.1034 12.9309V10.4482C7.1034 9.13125 7.62655 7.86827 8.55775 6.93707C9.48895 6.00586 10.7519 5.48272 12.0688 5.48272C13.3858 5.48272 14.6487 6.00586 15.5799 6.93707C16.5111 7.86827 17.0343 9.13125 17.0343 10.4482V12.9309C17.0343 13.0955 17.0997 13.2533 17.2161 13.3697L18.8963 15.0499V16.0343Z" fill="#0059B3"/>
</g>
</svg>
