<svg width="24" height="24" viewBox="0 0 24 24" fill="none" xmlns="http://www.w3.org/2000/svg">
<g id="user">
<path id="Vector" d="M20.9974 12.0015C20.9978 10.5047 20.6249 9.03131 19.9123 7.71492C19.1997 6.39853 18.17 5.2807 16.9164 4.46265C15.6629 3.64461 14.225 3.1522 12.7331 3.03003C11.2413 2.90785 9.74247 3.15977 8.3725 3.76296C7.00254 4.36615 5.80468 5.30157 4.88743 6.48448C3.97018 7.6674 3.3625 9.06045 3.11943 10.5375C2.87637 12.0145 3.00559 13.5288 3.49541 14.9433C3.98522 16.3577 4.82015 17.6277 5.92457 18.6381L6.03705 18.7419C7.68213 20.1969 9.8025 21 11.9987 21C14.1949 21 16.3152 20.1969 17.9603 18.7419L18.0728 18.6381C18.9953 17.7963 19.7319 16.7712 20.2354 15.6284C20.739 14.4857 20.9985 13.2504 20.9974 12.0015ZM4.38441 12.0015C4.38396 10.7683 4.68305 9.55344 5.25596 8.46138C5.82887 7.36932 6.65846 6.43276 7.67339 5.73223C8.68832 5.0317 9.85822 4.58817 11.0825 4.43978C12.3067 4.29139 13.5487 4.44259 14.7016 4.88036C15.8545 5.31813 16.8838 6.02938 17.7011 6.95295C18.5183 7.87652 19.0989 8.98476 19.3931 10.1824C19.6873 11.38 19.6862 12.6311 19.3899 13.8282C19.0936 15.0253 18.5109 16.1325 17.6921 17.0546C16.9203 15.9353 15.833 15.0709 14.5685 14.5714C15.2467 14.0372 15.7416 13.3049 15.9843 12.4765C16.2271 11.648 16.2056 10.7645 15.923 9.94875C15.6403 9.13304 15.1105 8.42567 14.4072 7.92504C13.7038 7.42441 12.862 7.15538 11.9987 7.15538C11.1354 7.15538 10.2935 7.42441 9.5902 7.92504C8.88688 8.42567 8.35704 9.13304 8.07438 9.94875C7.79171 10.7645 7.77026 11.648 8.01302 12.4765C8.25577 13.3049 8.75066 14.0372 9.42886 14.5714C8.16438 15.0709 7.07708 15.9353 6.30528 17.0546C5.06569 15.6636 4.38187 13.8647 4.38441 12.0015ZM9.22985 11.3093C9.22985 10.7617 9.39224 10.2264 9.69648 9.77106C10.0007 9.31572 10.4332 8.96084 10.9391 8.75127C11.445 8.54171 12.0017 8.48687 12.5388 8.59371C13.0759 8.70054 13.5693 8.96425 13.9565 9.35148C14.3438 9.7387 14.6075 10.2321 14.7143 10.7692C14.8211 11.3063 14.7663 11.863 14.5567 12.3689C14.3472 12.8748 13.9923 13.3073 13.537 13.6115C13.0816 13.9158 12.5463 14.0782 11.9987 14.0782C11.265 14.0759 10.5621 13.7834 10.0433 13.2647C9.52458 12.7459 9.23213 12.043 9.22985 11.3093ZM7.33494 18.0151C7.83585 17.2327 8.52556 16.5888 9.34056 16.1429C10.1556 15.697 11.0697 15.4632 11.9987 15.4632C12.9277 15.4632 13.8418 15.697 14.6568 16.1429C15.4718 16.5888 16.1615 17.2327 16.6624 18.0151C15.329 19.0521 13.6879 19.6151 11.9987 19.6151C10.3094 19.6151 8.6684 19.0521 7.33494 18.0151Z" fill="#0059B3"/>
</g>
</svg>
