<svg width="24" height="24" viewBox="0 0 24 24" fill="none" xmlns="http://www.w3.org/2000/svg">
<path d="M3.00115 15.0632L4.96044 12.3884L3 9.71243C3.20672 9.0222 3.49384 8.34575 3.87054 7.69456C4.23744 7.05777 4.67762 6.4661 5.1821 5.93166L8.48051 6.29113L9.81733 3.25802C11.2517 2.91516 12.7466 2.91398 14.1815 3.25457L15.5206 6.29113L18.8191 5.93166C19.8322 7.00406 20.5793 8.29951 21 9.71358L19.0407 12.3884L21 15.0643C20.7933 15.7545 20.5062 16.431 20.1295 17.0822C19.7626 17.719 19.3224 18.3106 18.8179 18.8451L15.5195 18.4856L14.1827 21.5187C12.7483 21.8616 11.2534 21.8628 9.81848 21.5222L8.47936 18.4856L5.18095 18.8451C4.16777 17.7727 3.42071 16.4772 3 15.0632M8.35532 17.344C8.59786 17.3177 8.84248 17.3693 9.05372 17.4913C9.26496 17.6134 9.43185 17.7995 9.53021 18.0228L10.6293 20.515C11.5366 20.6688 12.4634 20.6666 13.3707 20.5138L14.4686 18.0228C14.5672 17.7997 14.7342 17.6138 14.9454 17.492C15.1566 17.3702 15.4011 17.3188 15.6435 17.3452L18.3516 17.6392C18.9377 16.9293 19.4012 16.1266 19.7229 15.2641L18.1139 13.0671C17.9696 12.8702 17.8919 12.6325 17.8919 12.3884C17.8919 12.1443 17.9696 11.9065 18.1139 11.7096L19.7217 9.51374C19.4009 8.65101 18.9382 7.8479 18.3528 7.13755L15.6435 7.43271C15.401 7.45903 15.1564 7.40743 14.9451 7.28539C14.7339 7.16335 14.567 6.97722 14.4686 6.75397L13.3707 4.26178C12.4632 4.10963 11.5367 4.11002 10.6293 4.26293L9.53136 6.75397C9.43282 6.97701 9.26585 7.16289 9.05462 7.28472C8.84339 7.40654 8.59888 7.45797 8.35647 7.43156L5.64838 7.13755C5.06227 7.84739 4.59881 8.65011 4.2771 9.51259L5.88611 11.7096C6.03037 11.9065 6.10814 12.1443 6.10814 12.3884C6.10814 12.6325 6.03037 12.8702 5.88611 13.0671L4.27825 15.263C4.59982 16.1255 5.06036 16.9283 5.64723 17.6392L8.35532 17.344ZM12.0006 15.8338C11.0868 15.8338 10.2104 15.4708 9.5643 14.8246C8.91816 14.1785 8.55516 13.3021 8.55516 12.3884C8.55516 11.4746 8.91816 10.5982 9.5643 9.95209C10.2104 9.30595 11.0868 8.94295 12.0006 8.94295C12.9144 8.94295 13.7907 9.30595 14.4369 9.95209C15.083 10.5982 15.446 11.4746 15.446 12.3884C15.446 13.3021 15.083 14.1785 14.4369 14.8246C13.7907 15.4708 12.9144 15.8338 12.0006 15.8338ZM12.0006 14.6853C12.6098 14.6853 13.194 14.4433 13.6248 14.0126C14.0555 13.5818 14.2975 12.9976 14.2975 12.3884C14.2975 11.7792 14.0555 11.1949 13.6248 10.7642C13.194 10.3334 12.6098 10.0914 12.0006 10.0914C11.3914 10.0914 10.8071 10.3334 10.3764 10.7642C9.94563 11.1949 9.70363 11.7792 9.70363 12.3884C9.70363 12.9976 9.94563 13.5818 10.3764 14.0126C10.8071 14.4433 11.3914 14.6853 12.0006 14.6853Z" fill="#0059B3"/>
</svg>
