<svg width="70" height="70" viewBox="0 0 70 70" fill="none" xmlns="http://www.w3.org/2000/svg">
<path d="M30 48.535L17.5 36.0325L21.0325 32.5L30 41.465L48.9625 22.5L52.5 26.0375L30 48.535Z" fill="#97D700"/>
<path d="M35 0C28.0776 0 21.3107 2.05271 15.555 5.89856C9.79931 9.74441 5.31327 15.2107 2.6642 21.6061C0.0151344 28.0015 -0.677982 35.0388 0.6725 41.8282C2.02298 48.6175 5.35641 54.8539 10.2512 59.7487C15.1461 64.6436 21.3825 67.977 28.1718 69.3275C34.9612 70.678 41.9985 69.9848 48.3939 67.3358C54.7893 64.6867 60.2556 60.2007 64.1014 54.445C67.9473 48.6892 70 41.9223 70 35C70 25.7174 66.3125 16.815 59.7487 10.2513C53.1849 3.68749 44.2826 0 35 0ZM35 65C29.0665 65 23.2664 63.2405 18.3329 59.9441C13.3994 56.6476 9.55423 51.9623 7.2836 46.4805C5.01297 40.9987 4.41887 34.9667 5.57643 29.1473C6.73398 23.3279 9.59121 17.9824 13.7868 13.7868C17.9824 9.59122 23.3278 6.734 29.1473 5.57644C34.9667 4.41888 40.9987 5.01298 46.4805 7.28361C51.9623 9.55424 56.6476 13.3994 59.9441 18.3329C63.2405 23.2664 65 29.0666 65 35C65 42.9565 61.8393 50.5871 56.2132 56.2132C50.5871 61.8393 42.9565 65 35 65Z" fill="#97D700"/>
</svg>
