<svg width="10" height="6" viewBox="0 0 10 6" fill="none" xmlns="http://www.w3.org/2000/svg">
<path fill-rule="evenodd" clip-rule="evenodd" d="M5.7066 5.70822C5.5191 5.89549 5.26493 6.00067 4.99993 6.00067C4.73493 6.00067 4.48077 5.89549 4.29327 5.70822L0.521267 1.93755C0.333759 1.74996 0.228453 1.49556 0.228516 1.23032C0.228578 0.965079 0.334004 0.710728 0.5216 0.52322C0.709197 0.335712 0.963597 0.230406 1.22884 0.230469C1.49408 0.230531 1.74843 0.335957 1.93593 0.523554L4.99993 3.58755L8.06393 0.523554C8.25245 0.341305 8.505 0.24039 8.7672 0.242544C9.0294 0.244698 9.28027 0.349748 9.46576 0.535069C9.65126 0.720391 9.75655 0.971155 9.75895 1.23335C9.76135 1.49555 9.66067 1.7482 9.4786 1.93689L5.70727 5.70889L5.7066 5.70822Z" fill="#0A3B70"/>
</svg>
